# xmcd
#
# Track frame offsets:
#  150
#  14064
#  35243
#  52144
#  74734
#  93880
#  106861
#  125479
#  142513
#  175015
#  189409
#  204980
#  211874
#  231364
#  257554
#  266841
#  289060
#  310619
#
# Disc length: 4351 seconds
#
# Revision: 0
# Processed by: cddbd v1.5.1PL0 Copyright (c) Steve Scherf et al.
# Submitted via: Collectorz.com_Music_Collector 6.9
#
DISCID=0810fd12
DTITLE=guy clark, joe ely, john hiatt and lyle lovett - fox theater, redwood - 14 february 2003
DYEAR=2003
DGENRE=
TTITLE0=intro
TTITLE1=guy clark - cold dog soup
TTITLE2=joe ely - twisty river bridge
TTITLE3=john hiatt - uncommon connection
TTITLE4=lyle lovett - good intentions
TTITLE5=guy clark - stuff that works
TTITLE6=joe ely - intro to because of the wind
TTITLE7=joe ely - because of the wind
TTITLE8=john hiatt - perfectly good guitar
TTITLE9=lyle lovett - skinny legs
TTITLE10=guy clark - the cape
TTITLE11=joe ely - intro to pay the alligator
TTITLE12=john hiatt - pay the alligator
TTITLE13=john hiatt - your dad did
TTITLE14=lyle lovett - intro to which way does that pony run
TTITLE15=lyle lovett - which way does that pony run
TTITLE16=guy clark - out in the parking lot
TTITLE17=joe ely - south winds of summer
EXTD=
EXTT0=
EXTT1=
EXTT2=
EXTT3=
EXTT4=
EXTT5=
EXTT6=
EXTT7=
EXTT8=
EXTT9=
EXTT10=
EXTT11=
EXTT12=
EXTT13=
EXTT14=
EXTT15=
EXTT16=
EXTT17=
PLAYORDER=
